# xmcd
#
# Track frame offsets:
#	150
#	18339
#	35691
#	48863
#	72440
#	92076
#	109734
#	122761
#	140080
#	156595
#	171637
#	191125
#
# Disc length: 2867 seconds
#
# Revision: 1
# Processed by: cddbd v1.5.2PL0 Copyright (c) Steve Scherf et al.
# Submitted via: audiograbber 1.83.01
#
DISCID=b40b310c
DTITLE=Alabama - The Last Stand "Live" (Only Available at Cracker Barrel)
DYEAR=2007
DGENRE=Country
TTITLE0=Here We Are
TTITLE1=Old Flame
TTITLE2=High Cotton
TTITLE3=If You're Gonna Play In Texas (You Gotta Have A Fiddle In The Band)
TTITLE4=The Cheap Seats
TTITLE5=Pass It On Down
TTITLE6=The Closer You Get
TTITLE7=Give Me One More Shot
TTITLE8=Feels So Right
TTITLE9=Jukebox In My Mind
TTITLE10=Forty Hour Week (For A Livin')
TTITLE11=The Fans
EXTD=
EXTT0=
EXTT1=
EXTT2=
EXTT3=
EXTT4=
EXTT5=
EXTT6=
EXTT7=
EXTT8=
EXTT9=
EXTT10=
EXTT11=
PLAYORDER=
